<mxfile host="app.diagrams.net" modified="2023-06-29T19:41:58.635Z" agent="Mozilla/5.0 (Windows NT 10.0; Win64; x64) AppleWebKit/537.36 (KHTML, like Gecko) Chrome/114.0.0.0 Safari/537.36" etag="IsnceNLwUmcx0cpTHt2C" version="21.5.0" type="google">
  <diagram id="C5RBs43oDa-KdzZeNtuy" name="Page-1">
    <mxGraphModel grid="1" page="1" gridSize="10" guides="1" tooltips="1" connect="1" arrows="1" fold="1" pageScale="1" pageWidth="1169" pageHeight="827" math="0" shadow="0">
      <root>
        <mxCell id="WIyWlLk6GJQsqaUBKTNV-0" />
        <mxCell id="WIyWlLk6GJQsqaUBKTNV-1" parent="WIyWlLk6GJQsqaUBKTNV-0" />
        <mxCell id="I99Bq9l6fQuZLmmT1x_a-0" value="Interface" style="swimlane;whiteSpace=wrap;html=1;" vertex="1" parent="WIyWlLk6GJQsqaUBKTNV-1">
          <mxGeometry x="-2320" y="23" width="1580" height="780" as="geometry">
            <mxRectangle x="-2110" y="40" width="90" height="30" as="alternateBounds" />
          </mxGeometry>
        </mxCell>
        <mxCell id="jcabPIDn7Bi4m2rs5iDa-4" value="&lt;p style=&quot;margin:0px;margin-top:4px;text-align:center;&quot;&gt;&lt;b&gt;InterfaceLogin&lt;/b&gt;&lt;/p&gt;&lt;hr size=&quot;1&quot;&gt;&lt;p style=&quot;margin:0px;margin-left:4px;&quot;&gt;&lt;span style=&quot;background-color: initial;&quot;&gt;- interfaceHomeUsuarioComum:&amp;nbsp;&lt;/span&gt;&lt;br&gt;&lt;/p&gt;InterfaceHomeUsuarioComum&lt;br&gt;- interfaceHomeAdm: InterfaceHomeAdm&lt;br&gt;&lt;hr size=&quot;1&quot;&gt;&lt;p style=&quot;margin:0px;margin-left:4px;&quot;&gt;&lt;/p&gt;&amp;nbsp;+ autenticaUsuario(String, String): Boolean" style="verticalAlign=top;align=left;overflow=fill;fontSize=12;fontFamily=Helvetica;html=1;whiteSpace=wrap;" vertex="1" parent="I99Bq9l6fQuZLmmT1x_a-0">
          <mxGeometry x="41.5" y="340" width="310" height="140" as="geometry" />
        </mxCell>
        <mxCell id="jcabPIDn7Bi4m2rs5iDa-9" value="&lt;p style=&quot;margin:0px;margin-top:4px;text-align:center;&quot;&gt;&lt;b&gt;InterfaceCadastroUsuario&lt;/b&gt;&lt;/p&gt;&lt;hr size=&quot;1&quot;&gt;&lt;p style=&quot;margin:0px;margin-left:4px;&quot;&gt;&lt;br&gt;&lt;/p&gt;&lt;hr size=&quot;1&quot;&gt;&lt;p style=&quot;margin:0px;margin-left:4px;&quot;&gt;&lt;/p&gt;&amp;nbsp;+ criaConta(usuario:Usuario): Boolean" style="verticalAlign=top;align=left;overflow=fill;fontSize=12;fontFamily=Helvetica;html=1;whiteSpace=wrap;" vertex="1" parent="I99Bq9l6fQuZLmmT1x_a-0">
          <mxGeometry x="43" y="190" width="307" height="120" as="geometry" />
        </mxCell>
        <mxCell id="jcabPIDn7Bi4m2rs5iDa-15" value="&lt;p style=&quot;margin:0px;margin-top:4px;text-align:center;&quot;&gt;&lt;b&gt;InterfaceInicial&lt;/b&gt;&lt;/p&gt;&lt;hr size=&quot;1&quot;&gt;&lt;p style=&quot;margin:0px;margin-left:4px;&quot;&gt;- interfaceCadastroUsuario: InterfaceCadastroUsuario&lt;/p&gt;&lt;p style=&quot;margin:0px;margin-left:4px;&quot;&gt;- interfaceLogin: InterfaceLogin&lt;/p&gt;&lt;hr size=&quot;1&quot;&gt;&lt;p style=&quot;margin:0px;margin-left:4px;&quot;&gt;&lt;/p&gt;&amp;nbsp;+ abrirTelaCadastro(): void&lt;br&gt;&amp;nbsp;+ abrirTelaLogin(): void" style="verticalAlign=top;align=left;overflow=fill;fontSize=12;fontFamily=Helvetica;html=1;whiteSpace=wrap;" vertex="1" parent="I99Bq9l6fQuZLmmT1x_a-0">
          <mxGeometry x="43" y="50" width="310" height="120" as="geometry" />
        </mxCell>
        <mxCell id="jcabPIDn7Bi4m2rs5iDa-16" value="InterfaceHomeUsuarioComum" style="swimlane;fontStyle=1;align=center;verticalAlign=top;childLayout=stackLayout;horizontal=1;startSize=26;horizontalStack=0;resizeParent=1;resizeParentMax=0;resizeLast=0;collapsible=1;marginBottom=0;whiteSpace=wrap;html=1;" vertex="1" parent="I99Bq9l6fQuZLmmT1x_a-0">
          <mxGeometry x="430" y="40" width="360" height="130" as="geometry">
            <mxRectangle x="490" y="50" width="210" height="30" as="alternateBounds" />
          </mxGeometry>
        </mxCell>
        <mxCell id="QHtUHX-bNr18blOX_b1a-3" value="- interfaceItensDoadosPorMim():&amp;nbsp;InterfaceItensDoadosPorMim&lt;br&gt;- interfacePesquisaItens():&amp;nbsp;InterfacePesquisarItens" style="text;strokeColor=none;fillColor=none;align=left;verticalAlign=top;spacingLeft=4;spacingRight=4;overflow=hidden;rotatable=0;points=[[0,0.5],[1,0.5]];portConstraint=eastwest;whiteSpace=wrap;html=1;" vertex="1" parent="jcabPIDn7Bi4m2rs5iDa-16">
          <mxGeometry y="26" width="360" height="44" as="geometry" />
        </mxCell>
        <mxCell id="jcabPIDn7Bi4m2rs5iDa-18" value="" style="line;strokeWidth=1;fillColor=none;align=left;verticalAlign=middle;spacingTop=-1;spacingLeft=3;spacingRight=3;rotatable=0;labelPosition=right;points=[];portConstraint=eastwest;strokeColor=inherit;" vertex="1" parent="jcabPIDn7Bi4m2rs5iDa-16">
          <mxGeometry y="70" width="360" height="10" as="geometry" />
        </mxCell>
        <mxCell id="jcabPIDn7Bi4m2rs5iDa-19" value="+ abrirTelaDoador(): void&lt;br&gt;+ abrirTelaDoacoes(): void" style="text;strokeColor=none;fillColor=none;align=left;verticalAlign=top;spacingLeft=4;spacingRight=4;overflow=hidden;rotatable=0;points=[[0,0.5],[1,0.5]];portConstraint=eastwest;whiteSpace=wrap;html=1;" vertex="1" parent="jcabPIDn7Bi4m2rs5iDa-16">
          <mxGeometry y="80" width="360" height="50" as="geometry" />
        </mxCell>
        <mxCell id="jcabPIDn7Bi4m2rs5iDa-28" value="InterfaceItensDoadosPorMim" style="swimlane;fontStyle=1;align=center;verticalAlign=top;childLayout=stackLayout;horizontal=1;startSize=26;horizontalStack=0;resizeParent=1;resizeParentMax=0;resizeLast=0;collapsible=1;marginBottom=0;whiteSpace=wrap;html=1;" vertex="1" parent="I99Bq9l6fQuZLmmT1x_a-0">
          <mxGeometry x="430" y="182" width="360" height="168" as="geometry" />
        </mxCell>
        <mxCell id="jcabPIDn7Bi4m2rs5iDa-29" value="- interfaceCadastroItens: InterfaceCadastroItens&lt;br&gt;- interfaceEdicaoItens: InterfaceEdicaoItens&lt;br&gt;- interfaceAprovaItensDoados: interfaceAprovaItensDoados&lt;br&gt;- itensFlowItem:&amp;nbsp;ItensFlowItem" style="text;strokeColor=none;fillColor=none;align=left;verticalAlign=top;spacingLeft=4;spacingRight=4;overflow=hidden;rotatable=0;points=[[0,0.5],[1,0.5]];portConstraint=eastwest;whiteSpace=wrap;html=1;" vertex="1" parent="jcabPIDn7Bi4m2rs5iDa-28">
          <mxGeometry y="26" width="360" height="64" as="geometry" />
        </mxCell>
        <mxCell id="jcabPIDn7Bi4m2rs5iDa-30" value="" style="line;strokeWidth=1;fillColor=none;align=left;verticalAlign=middle;spacingTop=-1;spacingLeft=3;spacingRight=3;rotatable=0;labelPosition=right;points=[];portConstraint=eastwest;strokeColor=inherit;" vertex="1" parent="jcabPIDn7Bi4m2rs5iDa-28">
          <mxGeometry y="90" width="360" height="8" as="geometry" />
        </mxCell>
        <mxCell id="jcabPIDn7Bi4m2rs5iDa-31" value="+ exibirTelaDoador(): void&lt;br&gt;+ exibirItensDoados(): void&lt;br&gt;- selecionarItem(): Item&lt;br&gt;- selecionarAcao(Item): void" style="text;strokeColor=none;fillColor=none;align=left;verticalAlign=top;spacingLeft=4;spacingRight=4;overflow=hidden;rotatable=0;points=[[0,0.5],[1,0.5]];portConstraint=eastwest;whiteSpace=wrap;html=1;" vertex="1" parent="jcabPIDn7Bi4m2rs5iDa-28">
          <mxGeometry y="98" width="360" height="70" as="geometry" />
        </mxCell>
        <mxCell id="jcabPIDn7Bi4m2rs5iDa-20" value="InterfaceCadastroItens" style="swimlane;fontStyle=1;align=center;verticalAlign=top;childLayout=stackLayout;horizontal=1;startSize=26;horizontalStack=0;resizeParent=1;resizeParentMax=0;resizeLast=0;collapsible=1;marginBottom=0;whiteSpace=wrap;html=1;" vertex="1" parent="I99Bq9l6fQuZLmmT1x_a-0">
          <mxGeometry x="430" y="380" width="360" height="86" as="geometry" />
        </mxCell>
        <mxCell id="jcabPIDn7Bi4m2rs5iDa-21" value="- persistenciaItemFlowItem:&amp;nbsp;PersistenciaItemFlowItem" style="text;strokeColor=none;fillColor=none;align=left;verticalAlign=top;spacingLeft=4;spacingRight=4;overflow=hidden;rotatable=0;points=[[0,0.5],[1,0.5]];portConstraint=eastwest;whiteSpace=wrap;html=1;" vertex="1" parent="jcabPIDn7Bi4m2rs5iDa-20">
          <mxGeometry y="26" width="360" height="20" as="geometry" />
        </mxCell>
        <mxCell id="jcabPIDn7Bi4m2rs5iDa-22" value="" style="line;strokeWidth=1;fillColor=none;align=left;verticalAlign=middle;spacingTop=-1;spacingLeft=3;spacingRight=3;rotatable=0;labelPosition=right;points=[];portConstraint=eastwest;strokeColor=inherit;" vertex="1" parent="jcabPIDn7Bi4m2rs5iDa-20">
          <mxGeometry y="46" width="360" height="8" as="geometry" />
        </mxCell>
        <mxCell id="jcabPIDn7Bi4m2rs5iDa-23" value="+ cadastrarItens(): void" style="text;strokeColor=none;fillColor=none;align=left;verticalAlign=top;spacingLeft=4;spacingRight=4;overflow=hidden;rotatable=0;points=[[0,0.5],[1,0.5]];portConstraint=eastwest;whiteSpace=wrap;html=1;" vertex="1" parent="jcabPIDn7Bi4m2rs5iDa-20">
          <mxGeometry y="54" width="360" height="32" as="geometry" />
        </mxCell>
        <mxCell id="jcabPIDn7Bi4m2rs5iDa-32" value="InterfaceAprovacaoItensDoados TODO" style="swimlane;fontStyle=1;align=center;verticalAlign=top;childLayout=stackLayout;horizontal=1;startSize=26;horizontalStack=0;resizeParent=1;resizeParentMax=0;resizeLast=0;collapsible=1;marginBottom=0;whiteSpace=wrap;html=1;" vertex="1" parent="I99Bq9l6fQuZLmmT1x_a-0">
          <mxGeometry x="430" y="620" width="360" height="86" as="geometry" />
        </mxCell>
        <mxCell id="jcabPIDn7Bi4m2rs5iDa-33" value="+ statusDoacaoFlowItem:&amp;nbsp;StatusDoacaoFlowItem" style="text;strokeColor=none;fillColor=none;align=left;verticalAlign=top;spacingLeft=4;spacingRight=4;overflow=hidden;rotatable=0;points=[[0,0.5],[1,0.5]];portConstraint=eastwest;whiteSpace=wrap;html=1;" vertex="1" parent="jcabPIDn7Bi4m2rs5iDa-32">
          <mxGeometry y="26" width="360" height="26" as="geometry" />
        </mxCell>
        <mxCell id="jcabPIDn7Bi4m2rs5iDa-34" value="" style="line;strokeWidth=1;fillColor=none;align=left;verticalAlign=middle;spacingTop=-1;spacingLeft=3;spacingRight=3;rotatable=0;labelPosition=right;points=[];portConstraint=eastwest;strokeColor=inherit;" vertex="1" parent="jcabPIDn7Bi4m2rs5iDa-32">
          <mxGeometry y="52" width="360" height="8" as="geometry" />
        </mxCell>
        <mxCell id="jcabPIDn7Bi4m2rs5iDa-35" value="+ aprovarItem(Item): void" style="text;strokeColor=none;fillColor=none;align=left;verticalAlign=top;spacingLeft=4;spacingRight=4;overflow=hidden;rotatable=0;points=[[0,0.5],[1,0.5]];portConstraint=eastwest;whiteSpace=wrap;html=1;" vertex="1" parent="jcabPIDn7Bi4m2rs5iDa-32">
          <mxGeometry y="60" width="360" height="26" as="geometry" />
        </mxCell>
        <mxCell id="jcabPIDn7Bi4m2rs5iDa-36" value="InterfaceEdicaoItens TODO" style="swimlane;fontStyle=1;align=center;verticalAlign=top;childLayout=stackLayout;horizontal=1;startSize=26;horizontalStack=0;resizeParent=1;resizeParentMax=0;resizeLast=0;collapsible=1;marginBottom=0;whiteSpace=wrap;html=1;" vertex="1" parent="I99Bq9l6fQuZLmmT1x_a-0">
          <mxGeometry x="430" y="502" width="360" height="98" as="geometry" />
        </mxCell>
        <mxCell id="jcabPIDn7Bi4m2rs5iDa-37" value="- edicaoItemFlowItem:&amp;nbsp;EdicaoItemFlowItem" style="text;strokeColor=none;fillColor=none;align=left;verticalAlign=top;spacingLeft=4;spacingRight=4;overflow=hidden;rotatable=0;points=[[0,0.5],[1,0.5]];portConstraint=eastwest;whiteSpace=wrap;html=1;" vertex="1" parent="jcabPIDn7Bi4m2rs5iDa-36">
          <mxGeometry y="26" width="360" height="24" as="geometry" />
        </mxCell>
        <mxCell id="jcabPIDn7Bi4m2rs5iDa-38" value="" style="line;strokeWidth=1;fillColor=none;align=left;verticalAlign=middle;spacingTop=-1;spacingLeft=3;spacingRight=3;rotatable=0;labelPosition=right;points=[];portConstraint=eastwest;strokeColor=inherit;" vertex="1" parent="jcabPIDn7Bi4m2rs5iDa-36">
          <mxGeometry y="50" width="360" height="8" as="geometry" />
        </mxCell>
        <mxCell id="jcabPIDn7Bi4m2rs5iDa-39" value="+ editarItem(Item): void" style="text;strokeColor=none;fillColor=none;align=left;verticalAlign=top;spacingLeft=4;spacingRight=4;overflow=hidden;rotatable=0;points=[[0,0.5],[1,0.5]];portConstraint=eastwest;whiteSpace=wrap;html=1;" vertex="1" parent="jcabPIDn7Bi4m2rs5iDa-36">
          <mxGeometry y="58" width="360" height="40" as="geometry" />
        </mxCell>
        <mxCell id="jcabPIDn7Bi4m2rs5iDa-24" value="InterfacePesquisaItens" style="swimlane;fontStyle=1;align=center;verticalAlign=top;childLayout=stackLayout;horizontal=1;startSize=20;horizontalStack=0;resizeParent=1;resizeParentMax=0;resizeLast=0;collapsible=1;marginBottom=0;whiteSpace=wrap;html=1;" vertex="1" parent="I99Bq9l6fQuZLmmT1x_a-0">
          <mxGeometry x="820" y="190" width="300" height="108" as="geometry">
            <mxRectangle x="614" y="157" width="180" height="30" as="alternateBounds" />
          </mxGeometry>
        </mxCell>
        <mxCell id="jcabPIDn7Bi4m2rs5iDa-25" value="- itensFlowItem:&amp;nbsp;ItensFlowItem&lt;br&gt;- interfaceDemonstraInteresse: interfaceDemonstraInteresse&amp;nbsp;" style="text;strokeColor=none;fillColor=none;align=left;verticalAlign=top;spacingLeft=4;spacingRight=4;overflow=hidden;rotatable=0;points=[[0,0.5],[1,0.5]];portConstraint=eastwest;whiteSpace=wrap;html=1;" vertex="1" parent="jcabPIDn7Bi4m2rs5iDa-24">
          <mxGeometry y="20" width="300" height="54" as="geometry" />
        </mxCell>
        <mxCell id="jcabPIDn7Bi4m2rs5iDa-26" value="" style="line;strokeWidth=1;fillColor=none;align=left;verticalAlign=middle;spacingTop=-1;spacingLeft=3;spacingRight=3;rotatable=0;labelPosition=right;points=[];portConstraint=eastwest;strokeColor=inherit;" vertex="1" parent="jcabPIDn7Bi4m2rs5iDa-24">
          <mxGeometry y="74" width="300" height="8" as="geometry" />
        </mxCell>
        <mxCell id="jcabPIDn7Bi4m2rs5iDa-27" value="+ buscarItens(String): void" style="text;strokeColor=none;fillColor=none;align=left;verticalAlign=top;spacingLeft=4;spacingRight=4;overflow=hidden;rotatable=0;points=[[0,0.5],[1,0.5]];portConstraint=eastwest;whiteSpace=wrap;html=1;" vertex="1" parent="jcabPIDn7Bi4m2rs5iDa-24">
          <mxGeometry y="82" width="300" height="26" as="geometry" />
        </mxCell>
        <mxCell id="jcabPIDn7Bi4m2rs5iDa-58" value="InterfaceDemonstraInteresse" style="swimlane;fontStyle=1;align=center;verticalAlign=top;childLayout=stackLayout;horizontal=1;startSize=26;horizontalStack=0;resizeParent=1;resizeParentMax=0;resizeLast=0;collapsible=1;marginBottom=0;whiteSpace=wrap;html=1;" vertex="1" parent="I99Bq9l6fQuZLmmT1x_a-0">
          <mxGeometry x="820" y="338" width="300" height="104" as="geometry">
            <mxRectangle x="614" y="277" width="210" height="30" as="alternateBounds" />
          </mxGeometry>
        </mxCell>
        <mxCell id="jcabPIDn7Bi4m2rs5iDa-59" value="- demonstracaoInteresseFlowItem:&amp;nbsp;&lt;br&gt;DemonstracaoInteresseFlowItem" style="text;strokeColor=none;fillColor=none;align=left;verticalAlign=top;spacingLeft=4;spacingRight=4;overflow=hidden;rotatable=0;points=[[0,0.5],[1,0.5]];portConstraint=eastwest;whiteSpace=wrap;html=1;" vertex="1" parent="jcabPIDn7Bi4m2rs5iDa-58">
          <mxGeometry y="26" width="300" height="44" as="geometry" />
        </mxCell>
        <mxCell id="jcabPIDn7Bi4m2rs5iDa-60" value="" style="line;strokeWidth=1;fillColor=none;align=left;verticalAlign=middle;spacingTop=-1;spacingLeft=3;spacingRight=3;rotatable=0;labelPosition=right;points=[];portConstraint=eastwest;strokeColor=inherit;" vertex="1" parent="jcabPIDn7Bi4m2rs5iDa-58">
          <mxGeometry y="70" width="300" height="8" as="geometry" />
        </mxCell>
        <mxCell id="jcabPIDn7Bi4m2rs5iDa-61" value="+ demonstrarInteresse(Item, Usuario): void" style="text;strokeColor=none;fillColor=none;align=left;verticalAlign=top;spacingLeft=4;spacingRight=4;overflow=hidden;rotatable=0;points=[[0,0.5],[1,0.5]];portConstraint=eastwest;whiteSpace=wrap;html=1;" vertex="1" parent="jcabPIDn7Bi4m2rs5iDa-58">
          <mxGeometry y="78" width="300" height="26" as="geometry" />
        </mxCell>
        <mxCell id="Qt3ncV8dP_27_UE0hKH4-2" value="&lt;p style=&quot;margin:0px;margin-top:4px;text-align:center;&quot;&gt;&lt;b&gt;InterfaceHomeAdm&lt;br&gt;&lt;/b&gt;&lt;/p&gt;&lt;hr size=&quot;1&quot;&gt;&lt;p style=&quot;margin:0px;margin-left:4px;&quot;&gt;- interfaceCadastroCategoria: InterfaceCadastroCategoria&lt;br&gt;- interfaceItemPendentesAprovacao:&amp;nbsp;&lt;/p&gt;InterfaceItemPendentesAprovacao&lt;hr size=&quot;1&quot;&gt;&lt;p style=&quot;margin:0px;margin-left:4px;&quot;&gt;+ abritTelaCadastroCategoria(): void&lt;br style=&quot;border-color: var(--border-color);&quot;&gt;+ abritTelaAprovarItem(): void&lt;br&gt;&lt;/p&gt;" style="verticalAlign=top;align=left;overflow=fill;fontSize=12;fontFamily=Helvetica;html=1;whiteSpace=wrap;" vertex="1" parent="I99Bq9l6fQuZLmmT1x_a-0">
          <mxGeometry x="1180" y="42" width="380" height="148" as="geometry" />
        </mxCell>
        <mxCell id="jcabPIDn7Bi4m2rs5iDa-67" value="InterfaceCadastroCategoria" style="swimlane;fontStyle=1;align=center;verticalAlign=top;childLayout=stackLayout;horizontal=1;startSize=26;horizontalStack=0;resizeParent=1;resizeParentMax=0;resizeLast=0;collapsible=1;marginBottom=0;whiteSpace=wrap;html=1;" vertex="1" parent="I99Bq9l6fQuZLmmT1x_a-0">
          <mxGeometry x="1180" y="228" width="390" height="128" as="geometry">
            <mxRectangle x="873" y="170" width="200" height="30" as="alternateBounds" />
          </mxGeometry>
        </mxCell>
        <mxCell id="jcabPIDn7Bi4m2rs5iDa-68" value="- insercaoCategoriaFlowItem:&amp;nbsp;InsercaoCategoriaFlowItem" style="text;strokeColor=none;fillColor=none;align=left;verticalAlign=top;spacingLeft=4;spacingRight=4;overflow=hidden;rotatable=0;points=[[0,0.5],[1,0.5]];portConstraint=eastwest;whiteSpace=wrap;html=1;" vertex="1" parent="jcabPIDn7Bi4m2rs5iDa-67">
          <mxGeometry y="26" width="390" height="54" as="geometry" />
        </mxCell>
        <mxCell id="jcabPIDn7Bi4m2rs5iDa-69" value="" style="line;strokeWidth=1;fillColor=none;align=left;verticalAlign=middle;spacingTop=-1;spacingLeft=3;spacingRight=3;rotatable=0;labelPosition=right;points=[];portConstraint=eastwest;strokeColor=inherit;" vertex="1" parent="jcabPIDn7Bi4m2rs5iDa-67">
          <mxGeometry y="80" width="390" height="8" as="geometry" />
        </mxCell>
        <mxCell id="jcabPIDn7Bi4m2rs5iDa-70" value="+ cadastrarCategoria(String): void&lt;br&gt;+ exibirCategorias(): String[]" style="text;strokeColor=none;fillColor=none;align=left;verticalAlign=top;spacingLeft=4;spacingRight=4;overflow=hidden;rotatable=0;points=[[0,0.5],[1,0.5]];portConstraint=eastwest;whiteSpace=wrap;html=1;" vertex="1" parent="jcabPIDn7Bi4m2rs5iDa-67">
          <mxGeometry y="88" width="390" height="40" as="geometry" />
        </mxCell>
        <mxCell id="jcabPIDn7Bi4m2rs5iDa-91" value="InterfaceItemPendentesAprovacao" style="swimlane;fontStyle=1;align=center;verticalAlign=top;childLayout=stackLayout;horizontal=1;startSize=26;horizontalStack=0;resizeParent=1;resizeParentMax=0;resizeLast=0;collapsible=1;marginBottom=0;whiteSpace=wrap;html=1;" vertex="1" parent="I99Bq9l6fQuZLmmT1x_a-0">
          <mxGeometry x="1180" y="380" width="390" height="118" as="geometry">
            <mxRectangle x="890" y="280" width="160" height="30" as="alternateBounds" />
          </mxGeometry>
        </mxCell>
        <mxCell id="jcabPIDn7Bi4m2rs5iDa-92" value="- interfaceAprovaItem: InterfaceAprovaItem&lt;br&gt;- exibicaoItensPendentesAprovacao:&amp;nbsp;ExibicaoItensPendentesAprovacao" style="text;strokeColor=none;fillColor=none;align=left;verticalAlign=top;spacingLeft=4;spacingRight=4;overflow=hidden;rotatable=0;points=[[0,0.5],[1,0.5]];portConstraint=eastwest;whiteSpace=wrap;html=1;" vertex="1" parent="jcabPIDn7Bi4m2rs5iDa-91">
          <mxGeometry y="26" width="390" height="54" as="geometry" />
        </mxCell>
        <mxCell id="jcabPIDn7Bi4m2rs5iDa-93" value="" style="line;strokeWidth=1;fillColor=none;align=left;verticalAlign=middle;spacingTop=-1;spacingLeft=3;spacingRight=3;rotatable=0;labelPosition=right;points=[];portConstraint=eastwest;strokeColor=inherit;" vertex="1" parent="jcabPIDn7Bi4m2rs5iDa-91">
          <mxGeometry y="80" width="390" height="8" as="geometry" />
        </mxCell>
        <mxCell id="jcabPIDn7Bi4m2rs5iDa-94" value="+ exibirItensPendentesAprovacao()&lt;br&gt;" style="text;strokeColor=none;fillColor=none;align=left;verticalAlign=top;spacingLeft=4;spacingRight=4;overflow=hidden;rotatable=0;points=[[0,0.5],[1,0.5]];portConstraint=eastwest;whiteSpace=wrap;html=1;" vertex="1" parent="jcabPIDn7Bi4m2rs5iDa-91">
          <mxGeometry y="88" width="390" height="30" as="geometry" />
        </mxCell>
        <mxCell id="jcabPIDn7Bi4m2rs5iDa-87" value="InterfaceAprovaItemAdmin" style="swimlane;fontStyle=1;align=center;verticalAlign=top;childLayout=stackLayout;horizontal=1;startSize=26;horizontalStack=0;resizeParent=1;resizeParentMax=0;resizeLast=0;collapsible=1;marginBottom=0;whiteSpace=wrap;html=1;" vertex="1" parent="I99Bq9l6fQuZLmmT1x_a-0">
          <mxGeometry x="1180" y="530" width="390" height="118" as="geometry">
            <mxRectangle x="890" y="280" width="160" height="30" as="alternateBounds" />
          </mxGeometry>
        </mxCell>
        <mxCell id="jcabPIDn7Bi4m2rs5iDa-88" value="- item: Item&lt;br&gt;- statusDoacaoFlowItem:&amp;nbsp;StatusDoacaoFlowItem&lt;br&gt;&amp;nbsp;" style="text;strokeColor=none;fillColor=none;align=left;verticalAlign=top;spacingLeft=4;spacingRight=4;overflow=hidden;rotatable=0;points=[[0,0.5],[1,0.5]];portConstraint=eastwest;whiteSpace=wrap;html=1;" vertex="1" parent="jcabPIDn7Bi4m2rs5iDa-87">
          <mxGeometry y="26" width="390" height="54" as="geometry" />
        </mxCell>
        <mxCell id="jcabPIDn7Bi4m2rs5iDa-89" value="" style="line;strokeWidth=1;fillColor=none;align=left;verticalAlign=middle;spacingTop=-1;spacingLeft=3;spacingRight=3;rotatable=0;labelPosition=right;points=[];portConstraint=eastwest;strokeColor=inherit;" vertex="1" parent="jcabPIDn7Bi4m2rs5iDa-87">
          <mxGeometry y="80" width="390" height="8" as="geometry" />
        </mxCell>
        <mxCell id="jcabPIDn7Bi4m2rs5iDa-90" value="+ aprovarItemDoado(item)" style="text;strokeColor=none;fillColor=none;align=left;verticalAlign=top;spacingLeft=4;spacingRight=4;overflow=hidden;rotatable=0;points=[[0,0.5],[1,0.5]];portConstraint=eastwest;whiteSpace=wrap;html=1;" vertex="1" parent="jcabPIDn7Bi4m2rs5iDa-87">
          <mxGeometry y="88" width="390" height="30" as="geometry" />
        </mxCell>
        <mxCell id="I99Bq9l6fQuZLmmT1x_a-1" value="Negócio" style="swimlane;whiteSpace=wrap;html=1;" vertex="1" parent="WIyWlLk6GJQsqaUBKTNV-1">
          <mxGeometry x="-690" y="23" width="580" height="780" as="geometry">
            <mxRectangle x="-560" y="40" width="90" height="30" as="alternateBounds" />
          </mxGeometry>
        </mxCell>
        <mxCell id="jcabPIDn7Bi4m2rs5iDa-75" value="FiltroItemsUsuarioFlowItem" style="swimlane;fontStyle=1;align=center;verticalAlign=top;childLayout=stackLayout;horizontal=1;startSize=26;horizontalStack=0;resizeParent=1;resizeParentMax=0;resizeLast=0;collapsible=1;marginBottom=0;whiteSpace=wrap;html=1;" vertex="1" parent="I99Bq9l6fQuZLmmT1x_a-1">
          <mxGeometry x="20" y="40" width="240" height="94" as="geometry" />
        </mxCell>
        <mxCell id="jcabPIDn7Bi4m2rs5iDa-76" value="- repositorioDoacoes: RepositorioDoacoes&amp;nbsp;" style="text;strokeColor=none;fillColor=none;align=left;verticalAlign=top;spacingLeft=4;spacingRight=4;overflow=hidden;rotatable=0;points=[[0,0.5],[1,0.5]];portConstraint=eastwest;whiteSpace=wrap;html=1;" vertex="1" parent="jcabPIDn7Bi4m2rs5iDa-75">
          <mxGeometry y="26" width="240" height="34" as="geometry" />
        </mxCell>
        <mxCell id="jcabPIDn7Bi4m2rs5iDa-77" value="" style="line;strokeWidth=1;fillColor=none;align=left;verticalAlign=middle;spacingTop=-1;spacingLeft=3;spacingRight=3;rotatable=0;labelPosition=right;points=[];portConstraint=eastwest;strokeColor=inherit;" vertex="1" parent="jcabPIDn7Bi4m2rs5iDa-75">
          <mxGeometry y="60" width="240" height="8" as="geometry" />
        </mxCell>
        <mxCell id="jcabPIDn7Bi4m2rs5iDa-78" value="+ filtra(Usuario): Item [ ]" style="text;strokeColor=none;fillColor=none;align=left;verticalAlign=top;spacingLeft=4;spacingRight=4;overflow=hidden;rotatable=0;points=[[0,0.5],[1,0.5]];portConstraint=eastwest;whiteSpace=wrap;html=1;" vertex="1" parent="jcabPIDn7Bi4m2rs5iDa-75">
          <mxGeometry y="68" width="240" height="26" as="geometry" />
        </mxCell>
        <mxCell id="jcabPIDn7Bi4m2rs5iDa-83" value="PersistenciaItemFlowItem" style="swimlane;fontStyle=1;align=center;verticalAlign=top;childLayout=stackLayout;horizontal=1;startSize=26;horizontalStack=0;resizeParent=1;resizeParentMax=0;resizeLast=0;collapsible=1;marginBottom=0;whiteSpace=wrap;html=1;" vertex="1" parent="I99Bq9l6fQuZLmmT1x_a-1">
          <mxGeometry x="20" y="161" width="240" height="84" as="geometry" />
        </mxCell>
        <mxCell id="jcabPIDn7Bi4m2rs5iDa-84" value="- repositorioItem: RepositorioItem" style="text;strokeColor=none;fillColor=none;align=left;verticalAlign=top;spacingLeft=4;spacingRight=4;overflow=hidden;rotatable=0;points=[[0,0.5],[1,0.5]];portConstraint=eastwest;whiteSpace=wrap;html=1;" vertex="1" parent="jcabPIDn7Bi4m2rs5iDa-83">
          <mxGeometry y="26" width="240" height="24" as="geometry" />
        </mxCell>
        <mxCell id="jcabPIDn7Bi4m2rs5iDa-85" value="" style="line;strokeWidth=1;fillColor=none;align=left;verticalAlign=middle;spacingTop=-1;spacingLeft=3;spacingRight=3;rotatable=0;labelPosition=right;points=[];portConstraint=eastwest;strokeColor=inherit;" vertex="1" parent="jcabPIDn7Bi4m2rs5iDa-83">
          <mxGeometry y="50" width="240" height="8" as="geometry" />
        </mxCell>
        <mxCell id="jcabPIDn7Bi4m2rs5iDa-86" value="+ salva(Item): Boolean" style="text;strokeColor=none;fillColor=none;align=left;verticalAlign=top;spacingLeft=4;spacingRight=4;overflow=hidden;rotatable=0;points=[[0,0.5],[1,0.5]];portConstraint=eastwest;whiteSpace=wrap;html=1;" vertex="1" parent="jcabPIDn7Bi4m2rs5iDa-83">
          <mxGeometry y="58" width="240" height="26" as="geometry" />
        </mxCell>
        <mxCell id="_2c4JI2DO305rTCwYh7l-6" value="CategoriasFlowItem" style="swimlane;fontStyle=1;align=center;verticalAlign=top;childLayout=stackLayout;horizontal=1;startSize=26;horizontalStack=0;resizeParent=1;resizeParentMax=0;resizeLast=0;collapsible=1;marginBottom=0;whiteSpace=wrap;html=1;" vertex="1" parent="I99Bq9l6fQuZLmmT1x_a-1">
          <mxGeometry x="300" y="40" width="250" height="104" as="geometry" />
        </mxCell>
        <mxCell id="_2c4JI2DO305rTCwYh7l-7" value="- repositorioCategoria: RepositorioCategoria" style="text;strokeColor=none;fillColor=none;align=left;verticalAlign=top;spacingLeft=4;spacingRight=4;overflow=hidden;rotatable=0;points=[[0,0.5],[1,0.5]];portConstraint=eastwest;whiteSpace=wrap;html=1;" vertex="1" parent="_2c4JI2DO305rTCwYh7l-6">
          <mxGeometry y="26" width="250" height="44" as="geometry" />
        </mxCell>
        <mxCell id="_2c4JI2DO305rTCwYh7l-8" value="" style="line;strokeWidth=1;fillColor=none;align=left;verticalAlign=middle;spacingTop=-1;spacingLeft=3;spacingRight=3;rotatable=0;labelPosition=right;points=[];portConstraint=eastwest;strokeColor=inherit;" vertex="1" parent="_2c4JI2DO305rTCwYh7l-6">
          <mxGeometry y="70" width="250" height="8" as="geometry" />
        </mxCell>
        <mxCell id="_2c4JI2DO305rTCwYh7l-9" value="+ get(): Categoria[ ]" style="text;strokeColor=none;fillColor=none;align=left;verticalAlign=top;spacingLeft=4;spacingRight=4;overflow=hidden;rotatable=0;points=[[0,0.5],[1,0.5]];portConstraint=eastwest;whiteSpace=wrap;html=1;" vertex="1" parent="_2c4JI2DO305rTCwYh7l-6">
          <mxGeometry y="78" width="250" height="26" as="geometry" />
        </mxCell>
        <mxCell id="_2c4JI2DO305rTCwYh7l-10" value="InteressadosFlowItem" style="swimlane;fontStyle=1;align=center;verticalAlign=top;childLayout=stackLayout;horizontal=1;startSize=26;horizontalStack=0;resizeParent=1;resizeParentMax=0;resizeLast=0;collapsible=1;marginBottom=0;whiteSpace=wrap;html=1;" vertex="1" parent="I99Bq9l6fQuZLmmT1x_a-1">
          <mxGeometry x="300" y="161" width="250" height="60" as="geometry" />
        </mxCell>
        <mxCell id="_2c4JI2DO305rTCwYh7l-12" value="" style="line;strokeWidth=1;fillColor=none;align=left;verticalAlign=middle;spacingTop=-1;spacingLeft=3;spacingRight=3;rotatable=0;labelPosition=right;points=[];portConstraint=eastwest;strokeColor=inherit;" vertex="1" parent="_2c4JI2DO305rTCwYh7l-10">
          <mxGeometry y="26" width="250" height="8" as="geometry" />
        </mxCell>
        <mxCell id="_2c4JI2DO305rTCwYh7l-13" value="+ get(Item): Usuario [ ]" style="text;strokeColor=none;fillColor=none;align=left;verticalAlign=top;spacingLeft=4;spacingRight=4;overflow=hidden;rotatable=0;points=[[0,0.5],[1,0.5]];portConstraint=eastwest;whiteSpace=wrap;html=1;" vertex="1" parent="_2c4JI2DO305rTCwYh7l-10">
          <mxGeometry y="34" width="250" height="26" as="geometry" />
        </mxCell>
        <mxCell id="_2c4JI2DO305rTCwYh7l-14" value="EdicaoItemFlowItem" style="swimlane;fontStyle=1;align=center;verticalAlign=top;childLayout=stackLayout;horizontal=1;startSize=26;horizontalStack=0;resizeParent=1;resizeParentMax=0;resizeLast=0;collapsible=1;marginBottom=0;whiteSpace=wrap;html=1;" vertex="1" parent="I99Bq9l6fQuZLmmT1x_a-1">
          <mxGeometry x="20" y="270" width="240" height="94" as="geometry" />
        </mxCell>
        <mxCell id="_2c4JI2DO305rTCwYh7l-15" value="- repositorioItem: RepositorioItem" style="text;strokeColor=none;fillColor=none;align=left;verticalAlign=top;spacingLeft=4;spacingRight=4;overflow=hidden;rotatable=0;points=[[0,0.5],[1,0.5]];portConstraint=eastwest;whiteSpace=wrap;html=1;" vertex="1" parent="_2c4JI2DO305rTCwYh7l-14">
          <mxGeometry y="26" width="240" height="34" as="geometry" />
        </mxCell>
        <mxCell id="_2c4JI2DO305rTCwYh7l-16" value="" style="line;strokeWidth=1;fillColor=none;align=left;verticalAlign=middle;spacingTop=-1;spacingLeft=3;spacingRight=3;rotatable=0;labelPosition=right;points=[];portConstraint=eastwest;strokeColor=inherit;" vertex="1" parent="_2c4JI2DO305rTCwYh7l-14">
          <mxGeometry y="60" width="240" height="8" as="geometry" />
        </mxCell>
        <mxCell id="_2c4JI2DO305rTCwYh7l-17" value="+ edit(Item): Boolean" style="text;strokeColor=none;fillColor=none;align=left;verticalAlign=top;spacingLeft=4;spacingRight=4;overflow=hidden;rotatable=0;points=[[0,0.5],[1,0.5]];portConstraint=eastwest;whiteSpace=wrap;html=1;" vertex="1" parent="_2c4JI2DO305rTCwYh7l-14">
          <mxGeometry y="68" width="240" height="26" as="geometry" />
        </mxCell>
        <mxCell id="_2c4JI2DO305rTCwYh7l-18" value="StatusDoacaoFlowItem" style="swimlane;fontStyle=1;align=center;verticalAlign=top;childLayout=stackLayout;horizontal=1;startSize=26;horizontalStack=0;resizeParent=1;resizeParentMax=0;resizeLast=0;collapsible=1;marginBottom=0;whiteSpace=wrap;html=1;" vertex="1" parent="I99Bq9l6fQuZLmmT1x_a-1">
          <mxGeometry x="300" y="270" width="250" height="108" as="geometry" />
        </mxCell>
        <mxCell id="_2c4JI2DO305rTCwYh7l-19" value="- repositorioDoacao: RepositorioDoacao" style="text;strokeColor=none;fillColor=none;align=left;verticalAlign=top;spacingLeft=4;spacingRight=4;overflow=hidden;rotatable=0;points=[[0,0.5],[1,0.5]];portConstraint=eastwest;whiteSpace=wrap;html=1;" vertex="1" parent="_2c4JI2DO305rTCwYh7l-18">
          <mxGeometry y="26" width="250" height="34" as="geometry" />
        </mxCell>
        <mxCell id="_2c4JI2DO305rTCwYh7l-20" value="" style="line;strokeWidth=1;fillColor=none;align=left;verticalAlign=middle;spacingTop=-1;spacingLeft=3;spacingRight=3;rotatable=0;labelPosition=right;points=[];portConstraint=eastwest;strokeColor=inherit;" vertex="1" parent="_2c4JI2DO305rTCwYh7l-18">
          <mxGeometry y="60" width="250" height="8" as="geometry" />
        </mxCell>
        <mxCell id="_2c4JI2DO305rTCwYh7l-21" value="+ muda(Item, EnumStatusItem): type" style="text;strokeColor=none;fillColor=none;align=left;verticalAlign=top;spacingLeft=4;spacingRight=4;overflow=hidden;rotatable=0;points=[[0,0.5],[1,0.5]];portConstraint=eastwest;whiteSpace=wrap;html=1;" vertex="1" parent="_2c4JI2DO305rTCwYh7l-18">
          <mxGeometry y="68" width="250" height="40" as="geometry" />
        </mxCell>
        <mxCell id="_2c4JI2DO305rTCwYh7l-22" value="EmailFlowItem" style="swimlane;fontStyle=1;align=center;verticalAlign=top;childLayout=stackLayout;horizontal=1;startSize=26;horizontalStack=0;resizeParent=1;resizeParentMax=0;resizeLast=0;collapsible=1;marginBottom=0;whiteSpace=wrap;html=1;" vertex="1" parent="I99Bq9l6fQuZLmmT1x_a-1">
          <mxGeometry x="20" y="400" width="240" height="60" as="geometry" />
        </mxCell>
        <mxCell id="_2c4JI2DO305rTCwYh7l-24" value="" style="line;strokeWidth=1;fillColor=none;align=left;verticalAlign=middle;spacingTop=-1;spacingLeft=3;spacingRight=3;rotatable=0;labelPosition=right;points=[];portConstraint=eastwest;strokeColor=inherit;" vertex="1" parent="_2c4JI2DO305rTCwYh7l-22">
          <mxGeometry y="26" width="240" height="8" as="geometry" />
        </mxCell>
        <mxCell id="_2c4JI2DO305rTCwYh7l-25" value="+ envia(Item): void" style="text;strokeColor=none;fillColor=none;align=left;verticalAlign=top;spacingLeft=4;spacingRight=4;overflow=hidden;rotatable=0;points=[[0,0.5],[1,0.5]];portConstraint=eastwest;whiteSpace=wrap;html=1;" vertex="1" parent="_2c4JI2DO305rTCwYh7l-22">
          <mxGeometry y="34" width="240" height="26" as="geometry" />
        </mxCell>
        <mxCell id="_2c4JI2DO305rTCwYh7l-26" value="ItensFlowItem" style="swimlane;fontStyle=1;align=center;verticalAlign=top;childLayout=stackLayout;horizontal=1;startSize=26;horizontalStack=0;resizeParent=1;resizeParentMax=0;resizeLast=0;collapsible=1;marginBottom=0;whiteSpace=wrap;html=1;" vertex="1" parent="I99Bq9l6fQuZLmmT1x_a-1">
          <mxGeometry x="300" y="400" width="250" height="100" as="geometry" />
        </mxCell>
        <mxCell id="_2c4JI2DO305rTCwYh7l-27" value="- repositorioItem: RepositorioItem" style="text;strokeColor=none;fillColor=none;align=left;verticalAlign=top;spacingLeft=4;spacingRight=4;overflow=hidden;rotatable=0;points=[[0,0.5],[1,0.5]];portConstraint=eastwest;whiteSpace=wrap;html=1;" vertex="1" parent="_2c4JI2DO305rTCwYh7l-26">
          <mxGeometry y="26" width="250" height="34" as="geometry" />
        </mxCell>
        <mxCell id="_2c4JI2DO305rTCwYh7l-28" value="" style="line;strokeWidth=1;fillColor=none;align=left;verticalAlign=middle;spacingTop=-1;spacingLeft=3;spacingRight=3;rotatable=0;labelPosition=right;points=[];portConstraint=eastwest;strokeColor=inherit;" vertex="1" parent="_2c4JI2DO305rTCwYh7l-26">
          <mxGeometry y="60" width="250" height="8" as="geometry" />
        </mxCell>
        <mxCell id="_2c4JI2DO305rTCwYh7l-29" value="+ busca(String): Item[ ]" style="text;strokeColor=none;fillColor=none;align=left;verticalAlign=top;spacingLeft=4;spacingRight=4;overflow=hidden;rotatable=0;points=[[0,0.5],[1,0.5]];portConstraint=eastwest;whiteSpace=wrap;html=1;" vertex="1" parent="_2c4JI2DO305rTCwYh7l-26">
          <mxGeometry y="68" width="250" height="32" as="geometry" />
        </mxCell>
        <mxCell id="_2c4JI2DO305rTCwYh7l-30" value="DemonstracaoInteresseFlowItem" style="swimlane;fontStyle=1;align=center;verticalAlign=top;childLayout=stackLayout;horizontal=1;startSize=26;horizontalStack=0;resizeParent=1;resizeParentMax=0;resizeLast=0;collapsible=1;marginBottom=0;whiteSpace=wrap;html=1;" vertex="1" parent="I99Bq9l6fQuZLmmT1x_a-1">
          <mxGeometry x="20" y="530" width="240" height="86" as="geometry" />
        </mxCell>
        <mxCell id="_2c4JI2DO305rTCwYh7l-31" value="- repositorioDoacao: RepositorioDoacao" style="text;strokeColor=none;fillColor=none;align=left;verticalAlign=top;spacingLeft=4;spacingRight=4;overflow=hidden;rotatable=0;points=[[0,0.5],[1,0.5]];portConstraint=eastwest;whiteSpace=wrap;html=1;" vertex="1" parent="_2c4JI2DO305rTCwYh7l-30">
          <mxGeometry y="26" width="240" height="26" as="geometry" />
        </mxCell>
        <mxCell id="_2c4JI2DO305rTCwYh7l-32" value="" style="line;strokeWidth=1;fillColor=none;align=left;verticalAlign=middle;spacingTop=-1;spacingLeft=3;spacingRight=3;rotatable=0;labelPosition=right;points=[];portConstraint=eastwest;strokeColor=inherit;" vertex="1" parent="_2c4JI2DO305rTCwYh7l-30">
          <mxGeometry y="52" width="240" height="8" as="geometry" />
        </mxCell>
        <mxCell id="_2c4JI2DO305rTCwYh7l-33" value="+ demonstraInteresse(Item, Usuario): void" style="text;strokeColor=none;fillColor=none;align=left;verticalAlign=top;spacingLeft=4;spacingRight=4;overflow=hidden;rotatable=0;points=[[0,0.5],[1,0.5]];portConstraint=eastwest;whiteSpace=wrap;html=1;" vertex="1" parent="_2c4JI2DO305rTCwYh7l-30">
          <mxGeometry y="60" width="240" height="26" as="geometry" />
        </mxCell>
        <mxCell id="_2c4JI2DO305rTCwYh7l-34" value="InsercaoCategoriaFlowItem" style="swimlane;fontStyle=1;align=center;verticalAlign=top;childLayout=stackLayout;horizontal=1;startSize=26;horizontalStack=0;resizeParent=1;resizeParentMax=0;resizeLast=0;collapsible=1;marginBottom=0;whiteSpace=wrap;html=1;" vertex="1" parent="I99Bq9l6fQuZLmmT1x_a-1">
          <mxGeometry x="300" y="530" width="250" height="94" as="geometry" />
        </mxCell>
        <mxCell id="_2c4JI2DO305rTCwYh7l-35" value="- repositorioCategoria: RepositorioCategoria" style="text;strokeColor=none;fillColor=none;align=left;verticalAlign=top;spacingLeft=4;spacingRight=4;overflow=hidden;rotatable=0;points=[[0,0.5],[1,0.5]];portConstraint=eastwest;whiteSpace=wrap;html=1;" vertex="1" parent="_2c4JI2DO305rTCwYh7l-34">
          <mxGeometry y="26" width="250" height="34" as="geometry" />
        </mxCell>
        <mxCell id="_2c4JI2DO305rTCwYh7l-36" value="" style="line;strokeWidth=1;fillColor=none;align=left;verticalAlign=middle;spacingTop=-1;spacingLeft=3;spacingRight=3;rotatable=0;labelPosition=right;points=[];portConstraint=eastwest;strokeColor=inherit;" vertex="1" parent="_2c4JI2DO305rTCwYh7l-34">
          <mxGeometry y="60" width="250" height="8" as="geometry" />
        </mxCell>
        <mxCell id="_2c4JI2DO305rTCwYh7l-37" value="+ insere(String): void" style="text;strokeColor=none;fillColor=none;align=left;verticalAlign=top;spacingLeft=4;spacingRight=4;overflow=hidden;rotatable=0;points=[[0,0.5],[1,0.5]];portConstraint=eastwest;whiteSpace=wrap;html=1;" vertex="1" parent="_2c4JI2DO305rTCwYh7l-34">
          <mxGeometry y="68" width="250" height="26" as="geometry" />
        </mxCell>
        <mxCell id="_2c4JI2DO305rTCwYh7l-38" value="ExibicaoItensPendentesAprovacao" style="swimlane;fontStyle=1;align=center;verticalAlign=top;childLayout=stackLayout;horizontal=1;startSize=26;horizontalStack=0;resizeParent=1;resizeParentMax=0;resizeLast=0;collapsible=1;marginBottom=0;whiteSpace=wrap;html=1;" vertex="1" parent="I99Bq9l6fQuZLmmT1x_a-1">
          <mxGeometry x="20" y="660" width="240" height="86" as="geometry" />
        </mxCell>
        <mxCell id="_2c4JI2DO305rTCwYh7l-39" value="- repositorioDoacao: RepositorioDoacao" style="text;strokeColor=none;fillColor=none;align=left;verticalAlign=top;spacingLeft=4;spacingRight=4;overflow=hidden;rotatable=0;points=[[0,0.5],[1,0.5]];portConstraint=eastwest;whiteSpace=wrap;html=1;" vertex="1" parent="_2c4JI2DO305rTCwYh7l-38">
          <mxGeometry y="26" width="240" height="26" as="geometry" />
        </mxCell>
        <mxCell id="_2c4JI2DO305rTCwYh7l-40" value="" style="line;strokeWidth=1;fillColor=none;align=left;verticalAlign=middle;spacingTop=-1;spacingLeft=3;spacingRight=3;rotatable=0;labelPosition=right;points=[];portConstraint=eastwest;strokeColor=inherit;" vertex="1" parent="_2c4JI2DO305rTCwYh7l-38">
          <mxGeometry y="52" width="240" height="8" as="geometry" />
        </mxCell>
        <mxCell id="_2c4JI2DO305rTCwYh7l-41" value="+ exibe(): void" style="text;strokeColor=none;fillColor=none;align=left;verticalAlign=top;spacingLeft=4;spacingRight=4;overflow=hidden;rotatable=0;points=[[0,0.5],[1,0.5]];portConstraint=eastwest;whiteSpace=wrap;html=1;" vertex="1" parent="_2c4JI2DO305rTCwYh7l-38">
          <mxGeometry y="60" width="240" height="26" as="geometry" />
        </mxCell>
        <mxCell id="I99Bq9l6fQuZLmmT1x_a-2" value="Peristência" style="swimlane;whiteSpace=wrap;html=1;" vertex="1" parent="WIyWlLk6GJQsqaUBKTNV-1">
          <mxGeometry x="-2320" y="860" width="1480" height="780" as="geometry">
            <mxRectangle x="80" y="40" width="100" height="30" as="alternateBounds" />
          </mxGeometry>
        </mxCell>
        <mxCell id="ZarIadHYQfNKSBNFRHOH-8" value="&lt;p style=&quot;margin:0px;margin-top:4px;text-align:center;&quot;&gt;&lt;b&gt;Usuario&lt;/b&gt;&lt;/p&gt;&lt;hr size=&quot;1&quot;&gt;&lt;p style=&quot;margin:0px;margin-left:4px;&quot;&gt;- id: String&lt;/p&gt;&lt;p style=&quot;margin:0px;margin-left:4px;&quot;&gt;- nome: String&lt;/p&gt;&lt;p style=&quot;margin:0px;margin-left:4px;&quot;&gt;- email: String&lt;br&gt;- senha: String&lt;/p&gt;&lt;p style=&quot;margin:0px;margin-left:4px;&quot;&gt;- isAdmin: boolean&lt;/p&gt;&lt;hr size=&quot;1&quot;&gt;&lt;p style=&quot;margin:0px;margin-left:4px;&quot;&gt;&lt;br&gt;&lt;/p&gt;" style="verticalAlign=top;align=left;overflow=fill;fontSize=12;fontFamily=Helvetica;html=1;whiteSpace=wrap;" vertex="1" parent="I99Bq9l6fQuZLmmT1x_a-2">
          <mxGeometry x="280" y="40" width="250" height="110" as="geometry" />
        </mxCell>
        <mxCell id="_2c4JI2DO305rTCwYh7l-0" style="edgeStyle=orthogonalEdgeStyle;rounded=0;orthogonalLoop=1;jettySize=auto;html=1;exitX=0.5;exitY=0;exitDx=0;exitDy=0;entryX=0.36;entryY=1;entryDx=0;entryDy=0;entryPerimeter=0;" edge="1" parent="I99Bq9l6fQuZLmmT1x_a-2" source="ZarIadHYQfNKSBNFRHOH-13" target="ZarIadHYQfNKSBNFRHOH-8">
          <mxGeometry relative="1" as="geometry">
            <mxPoint x="370" y="190" as="targetPoint" />
            <Array as="points">
              <mxPoint x="235" y="220" />
              <mxPoint x="370" y="220" />
            </Array>
          </mxGeometry>
        </mxCell>
        <mxCell id="ZarIadHYQfNKSBNFRHOH-13" value="&lt;p style=&quot;margin:0px;margin-top:4px;text-align:center;&quot;&gt;&lt;b&gt;UsuarioComum&lt;/b&gt;&lt;/p&gt;&lt;hr size=&quot;1&quot;&gt;&lt;p style=&quot;margin:0px;margin-left:4px;&quot;&gt;- listaObjetosDoados: Doacao [ ]&lt;/p&gt;&lt;p style=&quot;margin:0px;margin-left:4px;&quot;&gt;-&amp;nbsp;listaObjetosRecebidos: Doacao [ ]&lt;/p&gt;&lt;hr size=&quot;1&quot;&gt;&lt;p style=&quot;margin:0px;margin-left:4px;&quot;&gt;&lt;br&gt;&lt;/p&gt;" style="verticalAlign=top;align=left;overflow=fill;fontSize=12;fontFamily=Helvetica;html=1;whiteSpace=wrap;" vertex="1" parent="I99Bq9l6fQuZLmmT1x_a-2">
          <mxGeometry x="140" y="250" width="200" height="70" as="geometry" />
        </mxCell>
        <mxCell id="ZarIadHYQfNKSBNFRHOH-19" value="PessoaFisica" style="swimlane;fontStyle=1;align=center;verticalAlign=top;childLayout=stackLayout;horizontal=1;startSize=26;horizontalStack=0;resizeParent=1;resizeParentMax=0;resizeLast=0;collapsible=1;marginBottom=0;whiteSpace=wrap;html=1;" vertex="1" parent="I99Bq9l6fQuZLmmT1x_a-2">
          <mxGeometry x="10" y="510" width="190" height="68" as="geometry" />
        </mxCell>
        <mxCell id="ZarIadHYQfNKSBNFRHOH-20" value="- cpf: String" style="text;strokeColor=none;fillColor=none;align=left;verticalAlign=top;spacingLeft=4;spacingRight=4;overflow=hidden;rotatable=0;points=[[0,0.5],[1,0.5]];portConstraint=eastwest;whiteSpace=wrap;html=1;" vertex="1" parent="ZarIadHYQfNKSBNFRHOH-19">
          <mxGeometry y="26" width="190" height="34" as="geometry" />
        </mxCell>
        <mxCell id="ZarIadHYQfNKSBNFRHOH-21" value="" style="line;strokeWidth=1;fillColor=none;align=left;verticalAlign=middle;spacingTop=-1;spacingLeft=3;spacingRight=3;rotatable=0;labelPosition=right;points=[];portConstraint=eastwest;strokeColor=inherit;" vertex="1" parent="ZarIadHYQfNKSBNFRHOH-19">
          <mxGeometry y="60" width="190" height="8" as="geometry" />
        </mxCell>
        <mxCell id="ZarIadHYQfNKSBNFRHOH-23" value="PessoaJuridica" style="swimlane;fontStyle=1;align=center;verticalAlign=top;childLayout=stackLayout;horizontal=1;startSize=26;horizontalStack=0;resizeParent=1;resizeParentMax=0;resizeLast=0;collapsible=1;marginBottom=0;whiteSpace=wrap;html=1;" vertex="1" parent="I99Bq9l6fQuZLmmT1x_a-2">
          <mxGeometry x="270" y="510" width="190" height="88" as="geometry" />
        </mxCell>
        <mxCell id="ZarIadHYQfNKSBNFRHOH-24" value="- cnpj: String&lt;br&gt;- inscricaoEstadual: String&lt;br&gt;- nomeFantasia: String" style="text;strokeColor=none;fillColor=none;align=left;verticalAlign=top;spacingLeft=4;spacingRight=4;overflow=hidden;rotatable=0;points=[[0,0.5],[1,0.5]];portConstraint=eastwest;whiteSpace=wrap;html=1;" vertex="1" parent="ZarIadHYQfNKSBNFRHOH-23">
          <mxGeometry y="26" width="190" height="54" as="geometry" />
        </mxCell>
        <mxCell id="ZarIadHYQfNKSBNFRHOH-25" value="" style="line;strokeWidth=1;fillColor=none;align=left;verticalAlign=middle;spacingTop=-1;spacingLeft=3;spacingRight=3;rotatable=0;labelPosition=right;points=[];portConstraint=eastwest;strokeColor=inherit;" vertex="1" parent="ZarIadHYQfNKSBNFRHOH-23">
          <mxGeometry y="80" width="190" height="8" as="geometry" />
        </mxCell>
        <mxCell id="ZarIadHYQfNKSBNFRHOH-0" value="Item" style="swimlane;fontStyle=1;align=center;verticalAlign=top;childLayout=stackLayout;horizontal=1;startSize=26;horizontalStack=0;resizeParent=1;resizeParentMax=0;resizeLast=0;collapsible=1;marginBottom=0;whiteSpace=wrap;html=1;" vertex="1" parent="I99Bq9l6fQuZLmmT1x_a-2">
          <mxGeometry x="840" y="310" width="260" height="170" as="geometry">
            <mxRectangle x="-240" y="500" width="70" height="30" as="alternateBounds" />
          </mxGeometry>
        </mxCell>
        <mxCell id="ZarIadHYQfNKSBNFRHOH-1" value="- id: String&lt;br&gt;- nome: String&lt;br&gt;- tipo: String&lt;br&gt;- descricao: String&lt;br&gt;- quantidade: int&lt;br&gt;- estadoConservacao: EnumEstadoConservacao&lt;br&gt;- fotos: String [ ]&lt;br&gt;- cidade: String" style="text;strokeColor=none;fillColor=none;align=left;verticalAlign=top;spacingLeft=4;spacingRight=4;overflow=hidden;rotatable=0;points=[[0,0.5],[1,0.5]];portConstraint=eastwest;whiteSpace=wrap;html=1;" vertex="1" parent="ZarIadHYQfNKSBNFRHOH-0">
          <mxGeometry y="26" width="260" height="134" as="geometry" />
        </mxCell>
        <mxCell id="ZarIadHYQfNKSBNFRHOH-2" value="" style="line;strokeWidth=1;fillColor=none;align=left;verticalAlign=middle;spacingTop=-1;spacingLeft=3;spacingRight=3;rotatable=0;labelPosition=right;points=[];portConstraint=eastwest;strokeColor=inherit;" vertex="1" parent="ZarIadHYQfNKSBNFRHOH-0">
          <mxGeometry y="160" width="260" height="10" as="geometry" />
        </mxCell>
        <mxCell id="_gGxdnMZ6im7O5yfsCIs-6" value="&lt;p style=&quot;margin:0px;margin-top:4px;text-align:center;&quot;&gt;&lt;b&gt;Doacao&lt;/b&gt;&lt;/p&gt;&lt;hr size=&quot;1&quot;&gt;&lt;p style=&quot;margin:0px;margin-left:4px;&quot;&gt;- item: Item&lt;/p&gt;&lt;p style=&quot;margin:0px;margin-left:4px;&quot;&gt;- responsavel: Usuario&lt;br&gt;- interessados: Usuario [ ]&lt;/p&gt;&lt;p style=&quot;margin:0px;margin-left:4px;&quot;&gt;- receptor: Usuario&lt;/p&gt;&lt;p style=&quot;margin:0px;margin-left:4px;&quot;&gt;- aprovador: UsuarioAdmin&lt;/p&gt;&lt;p style=&quot;margin:0px;margin-left:4px;&quot;&gt;&lt;/p&gt;&lt;p style=&quot;margin:0px;margin-left:4px;&quot;&gt;&lt;/p&gt;&amp;nbsp;- status: EnumStatusItem" style="verticalAlign=top;align=left;overflow=fill;fontSize=12;fontFamily=Helvetica;html=1;whiteSpace=wrap;" vertex="1" parent="I99Bq9l6fQuZLmmT1x_a-2">
          <mxGeometry x="840" y="40" width="260" height="130" as="geometry" />
        </mxCell>
        <mxCell id="jcabPIDn7Bi4m2rs5iDa-95" value="" style="endArrow=classic;html=1;rounded=0;exitX=0.5;exitY=0;exitDx=0;exitDy=0;" edge="1" parent="I99Bq9l6fQuZLmmT1x_a-2" source="ZarIadHYQfNKSBNFRHOH-19">
          <mxGeometry width="50" height="50" relative="1" as="geometry">
            <mxPoint x="150" y="510" as="sourcePoint" />
            <mxPoint x="190" y="320" as="targetPoint" />
            <Array as="points">
              <mxPoint x="105" y="420" />
              <mxPoint x="190" y="420" />
            </Array>
          </mxGeometry>
        </mxCell>
        <mxCell id="jcabPIDn7Bi4m2rs5iDa-96" value="" style="endArrow=classic;html=1;rounded=0;exitX=0.459;exitY=-0.028;exitDx=0;exitDy=0;exitPerimeter=0;" edge="1" parent="I99Bq9l6fQuZLmmT1x_a-2" source="ZarIadHYQfNKSBNFRHOH-23">
          <mxGeometry width="50" height="50" relative="1" as="geometry">
            <mxPoint x="310" y="410" as="sourcePoint" />
            <mxPoint x="270" y="320" as="targetPoint" />
            <Array as="points">
              <mxPoint x="357" y="420" />
              <mxPoint x="270" y="420" />
            </Array>
          </mxGeometry>
        </mxCell>
        <mxCell id="jcabPIDn7Bi4m2rs5iDa-97" value="" style="endArrow=classic;html=1;rounded=0;entryX=0.676;entryY=1.009;entryDx=0;entryDy=0;entryPerimeter=0;" edge="1" parent="I99Bq9l6fQuZLmmT1x_a-2" target="ZarIadHYQfNKSBNFRHOH-8">
          <mxGeometry width="50" height="50" relative="1" as="geometry">
            <mxPoint x="595" y="260" as="sourcePoint" />
            <mxPoint x="645" y="210" as="targetPoint" />
            <Array as="points">
              <mxPoint x="595" y="220" />
              <mxPoint x="449" y="220" />
            </Array>
          </mxGeometry>
        </mxCell>
        <mxCell id="otoFTHoH3AzoKmz6jdtV-11" value="Categoria" style="swimlane;fontStyle=1;align=center;verticalAlign=top;childLayout=stackLayout;horizontal=1;startSize=26;horizontalStack=0;resizeParent=1;resizeParentMax=0;resizeLast=0;collapsible=1;marginBottom=0;whiteSpace=wrap;html=1;" vertex="1" parent="I99Bq9l6fQuZLmmT1x_a-2">
          <mxGeometry x="840" y="200" width="260" height="78" as="geometry" />
        </mxCell>
        <mxCell id="otoFTHoH3AzoKmz6jdtV-12" value="- id: String&lt;br&gt;- nome: String" style="text;strokeColor=none;fillColor=none;align=left;verticalAlign=top;spacingLeft=4;spacingRight=4;overflow=hidden;rotatable=0;points=[[0,0.5],[1,0.5]];portConstraint=eastwest;whiteSpace=wrap;html=1;" vertex="1" parent="otoFTHoH3AzoKmz6jdtV-11">
          <mxGeometry y="26" width="260" height="44" as="geometry" />
        </mxCell>
        <mxCell id="otoFTHoH3AzoKmz6jdtV-13" value="" style="line;strokeWidth=1;fillColor=none;align=left;verticalAlign=middle;spacingTop=-1;spacingLeft=3;spacingRight=3;rotatable=0;labelPosition=right;points=[];portConstraint=eastwest;strokeColor=inherit;" vertex="1" parent="otoFTHoH3AzoKmz6jdtV-11">
          <mxGeometry y="70" width="260" height="8" as="geometry" />
        </mxCell>
        <mxCell id="otoFTHoH3AzoKmz6jdtV-0" value="RepositorioUsuario" style="swimlane;fontStyle=1;align=center;verticalAlign=top;childLayout=stackLayout;horizontal=1;startSize=26;horizontalStack=0;resizeParent=1;resizeParentMax=0;resizeLast=0;collapsible=1;marginBottom=0;whiteSpace=wrap;html=1;" vertex="1" parent="I99Bq9l6fQuZLmmT1x_a-2">
          <mxGeometry x="1160" y="40" width="260" height="130" as="geometry" />
        </mxCell>
        <mxCell id="otoFTHoH3AzoKmz6jdtV-2" value="" style="line;strokeWidth=1;fillColor=none;align=left;verticalAlign=middle;spacingTop=-1;spacingLeft=3;spacingRight=3;rotatable=0;labelPosition=right;points=[];portConstraint=eastwest;strokeColor=inherit;" vertex="1" parent="otoFTHoH3AzoKmz6jdtV-0">
          <mxGeometry y="26" width="260" height="8" as="geometry" />
        </mxCell>
        <mxCell id="otoFTHoH3AzoKmz6jdtV-3" value="+ get(String): Usuario&lt;br&gt;+ delete(String): void&lt;br&gt;+ update(Usuario): void" style="text;strokeColor=none;fillColor=none;align=left;verticalAlign=top;spacingLeft=4;spacingRight=4;overflow=hidden;rotatable=0;points=[[0,0.5],[1,0.5]];portConstraint=eastwest;whiteSpace=wrap;html=1;" vertex="1" parent="otoFTHoH3AzoKmz6jdtV-0">
          <mxGeometry y="34" width="260" height="96" as="geometry" />
        </mxCell>
        <mxCell id="otoFTHoH3AzoKmz6jdtV-4" value="RepositorioDoacoes" style="swimlane;fontStyle=1;align=center;verticalAlign=top;childLayout=stackLayout;horizontal=1;startSize=26;horizontalStack=0;resizeParent=1;resizeParentMax=0;resizeLast=0;collapsible=1;marginBottom=0;whiteSpace=wrap;html=1;" vertex="1" parent="I99Bq9l6fQuZLmmT1x_a-2">
          <mxGeometry x="1160" y="200" width="259" height="130" as="geometry" />
        </mxCell>
        <mxCell id="otoFTHoH3AzoKmz6jdtV-5" value="" style="line;strokeWidth=1;fillColor=none;align=left;verticalAlign=middle;spacingTop=-1;spacingLeft=3;spacingRight=3;rotatable=0;labelPosition=right;points=[];portConstraint=eastwest;strokeColor=inherit;" vertex="1" parent="otoFTHoH3AzoKmz6jdtV-4">
          <mxGeometry y="26" width="259" height="8" as="geometry" />
        </mxCell>
        <mxCell id="otoFTHoH3AzoKmz6jdtV-6" value="+ get(String, String): Doacao [ ]&lt;br&gt;+ delete(String): void&lt;br&gt;+ update(Doacao): void" style="text;strokeColor=none;fillColor=none;align=left;verticalAlign=top;spacingLeft=4;spacingRight=4;overflow=hidden;rotatable=0;points=[[0,0.5],[1,0.5]];portConstraint=eastwest;whiteSpace=wrap;html=1;" vertex="1" parent="otoFTHoH3AzoKmz6jdtV-4">
          <mxGeometry y="34" width="259" height="96" as="geometry" />
        </mxCell>
        <mxCell id="otoFTHoH3AzoKmz6jdtV-7" value="RepositorioItem" style="swimlane;fontStyle=1;align=center;verticalAlign=top;childLayout=stackLayout;horizontal=1;startSize=26;horizontalStack=0;resizeParent=1;resizeParentMax=0;resizeLast=0;collapsible=1;marginBottom=0;whiteSpace=wrap;html=1;" vertex="1" parent="I99Bq9l6fQuZLmmT1x_a-2">
          <mxGeometry x="1161" y="360" width="259" height="130" as="geometry" />
        </mxCell>
        <mxCell id="otoFTHoH3AzoKmz6jdtV-8" value="" style="line;strokeWidth=1;fillColor=none;align=left;verticalAlign=middle;spacingTop=-1;spacingLeft=3;spacingRight=3;rotatable=0;labelPosition=right;points=[];portConstraint=eastwest;strokeColor=inherit;" vertex="1" parent="otoFTHoH3AzoKmz6jdtV-7">
          <mxGeometry y="26" width="259" height="8" as="geometry" />
        </mxCell>
        <mxCell id="otoFTHoH3AzoKmz6jdtV-9" value="+ get(String, String): Item [ ]&lt;br&gt;+ delete(String): void&lt;br&gt;+ update(Item): void" style="text;strokeColor=none;fillColor=none;align=left;verticalAlign=top;spacingLeft=4;spacingRight=4;overflow=hidden;rotatable=0;points=[[0,0.5],[1,0.5]];portConstraint=eastwest;whiteSpace=wrap;html=1;" vertex="1" parent="otoFTHoH3AzoKmz6jdtV-7">
          <mxGeometry y="34" width="259" height="96" as="geometry" />
        </mxCell>
        <mxCell id="otoFTHoH3AzoKmz6jdtV-15" value="RepositorioCategoria" style="swimlane;fontStyle=1;align=center;verticalAlign=top;childLayout=stackLayout;horizontal=1;startSize=26;horizontalStack=0;resizeParent=1;resizeParentMax=0;resizeLast=0;collapsible=1;marginBottom=0;whiteSpace=wrap;html=1;" vertex="1" parent="I99Bq9l6fQuZLmmT1x_a-2">
          <mxGeometry x="1161" y="520" width="259" height="130" as="geometry" />
        </mxCell>
        <mxCell id="otoFTHoH3AzoKmz6jdtV-16" value="" style="line;strokeWidth=1;fillColor=none;align=left;verticalAlign=middle;spacingTop=-1;spacingLeft=3;spacingRight=3;rotatable=0;labelPosition=right;points=[];portConstraint=eastwest;strokeColor=inherit;" vertex="1" parent="otoFTHoH3AzoKmz6jdtV-15">
          <mxGeometry y="26" width="259" height="8" as="geometry" />
        </mxCell>
        <mxCell id="otoFTHoH3AzoKmz6jdtV-17" value="+ get(String, String): Categoria [ ]&lt;br&gt;+ delete(String): void&lt;br&gt;+ update(Categoria): void" style="text;strokeColor=none;fillColor=none;align=left;verticalAlign=top;spacingLeft=4;spacingRight=4;overflow=hidden;rotatable=0;points=[[0,0.5],[1,0.5]];portConstraint=eastwest;whiteSpace=wrap;html=1;" vertex="1" parent="otoFTHoH3AzoKmz6jdtV-15">
          <mxGeometry y="34" width="259" height="96" as="geometry" />
        </mxCell>
        <mxCell id="IbC9erqvzMjzJG6RKier-0" value="&lt;p style=&quot;margin:0px;margin-top:4px;text-align:center;&quot;&gt;&lt;b&gt;UsuarioAdmin&lt;/b&gt;&lt;/p&gt;&lt;hr size=&quot;1&quot;&gt;&lt;p style=&quot;margin:0px;margin-left:4px;&quot;&gt;- listaObjetosAprovados: Doacao [ ]&lt;/p&gt;&lt;hr size=&quot;1&quot;&gt;&lt;p style=&quot;margin:0px;margin-left:4px;&quot;&gt;&lt;br&gt;&lt;/p&gt;" style="verticalAlign=top;align=left;overflow=fill;fontSize=12;fontFamily=Helvetica;html=1;whiteSpace=wrap;" vertex="1" parent="I99Bq9l6fQuZLmmT1x_a-2">
          <mxGeometry x="510" y="250" width="200" height="60" as="geometry" />
        </mxCell>
      </root>
    </mxGraphModel>
  </diagram>
</mxfile>
